<?xml version="1.0" encoding="utf-8"?>
<!-- Generator: Adobe Illustrator 22.1.0, SVG Export Plug-In . SVG Version: 6.00 Build 0)  -->
<svg version="1.1" id="Layer_1" xmlns="http://www.w3.org/2000/svg" xmlns:xlink="http://www.w3.org/1999/xlink" x="0px" y="0px"
	 viewBox="0 0 389.7 39.5" style="enable-background:new 0 0 389.7 39.5;" xml:space="preserve">
<style type="text/css">
	.st0{fill:#EE366B;}
	.st1{opacity:0.8;fill:#FFFFFF;}
	.st2{opacity:0.48;}
	.st3{fill:#42BFB7;}
	.st4{fill:none;stroke:#25BAA6;stroke-width:0.5;stroke-miterlimit:10;}
	.st5{opacity:0.2;}
</style>
<g>
	<path class="st0" d="M28,27.9c0.2,0,0.4,0,0.6,0.1c0.2,0.1,0.4,0.2,0.6,0.4l3.3,3.5c-1.4,1.9-3.2,3.3-5.4,4.3
		c-2.2,1-4.7,1.4-7.7,1.4c-2.7,0-5.2-0.5-7.3-1.4c-2.2-0.9-4-2.2-5.5-3.8c-1.5-1.6-2.6-3.6-3.4-5.8C2.4,24.3,2,21.9,2,19.3
		c0-2.7,0.5-5.1,1.4-7.3c0.9-2.2,2.2-4.2,3.8-5.8s3.6-2.9,5.9-3.8C15.4,1.4,17.9,1,20.7,1c1.3,0,2.6,0.1,3.8,0.4
		c1.2,0.2,2.3,0.6,3.3,1c1,0.4,2,0.9,2.8,1.5c0.9,0.6,1.6,1.2,2.3,1.9l-2.8,3.8c-0.2,0.2-0.4,0.4-0.6,0.6s-0.6,0.3-1,0.3
		c-0.3,0-0.6-0.1-0.8-0.2c-0.3-0.1-0.5-0.3-0.8-0.5c-0.3-0.2-0.6-0.4-1-0.6c-0.4-0.2-0.8-0.4-1.2-0.6c-0.5-0.2-1-0.3-1.7-0.5
		c-0.6-0.1-1.4-0.2-2.3-0.2c-1.5,0-2.9,0.3-4.1,0.8c-1.2,0.5-2.3,1.3-3.2,2.3c-0.9,1-1.6,2.2-2.1,3.6c-0.5,1.4-0.8,3-0.8,4.7
		c0,1.8,0.3,3.5,0.8,4.9c0.5,1.4,1.2,2.6,2,3.6c0.9,1,1.9,1.7,3,2.2s2.4,0.8,3.7,0.8c0.8,0,1.4,0,2.1-0.1c0.6-0.1,1.2-0.2,1.7-0.4
		s1-0.4,1.5-0.7c0.5-0.3,1-0.6,1.5-1.1c0.2-0.2,0.4-0.3,0.6-0.4C27.6,27.9,27.8,27.9,28,27.9z"/>
	<path class="st0" d="M59.3,24.2c0,2-0.2,3.8-0.7,5.4c-0.5,1.6-1.2,3-2.3,4.2c-1,1.2-2.3,2.1-3.8,2.7c-1.5,0.6-3.3,1-5.4,1
		c-0.9,0-1.9,0-2.8-0.1c-0.9-0.1-1.9-0.3-2.8-0.5l0.4-4.8c0-0.4,0.2-0.8,0.5-1c0.3-0.3,0.7-0.4,1.3-0.4c0.3,0,0.6,0,1,0.1
		c0.4,0.1,0.9,0.1,1.5,0.1c0.8,0,1.5-0.1,2.1-0.3c0.6-0.2,1.1-0.6,1.5-1.1c0.4-0.5,0.7-1.2,0.9-2c0.2-0.8,0.3-1.9,0.3-3.1v-23h8.3
		V24.2z"/>
	<path class="st1" d="M90.4,37.1V1.4h13.1c2.5,0,4.6,0.2,6.3,0.7c1.7,0.5,3.2,1.1,4.2,1.9c1.1,0.8,1.9,1.8,2.4,3s0.8,2.5,0.8,4
		c0,0.8-0.1,1.6-0.3,2.3c-0.2,0.7-0.6,1.4-1.1,2.1c-0.5,0.7-1.1,1.2-1.9,1.8c-0.8,0.5-1.7,1-2.8,1.4c2.4,0.6,4.1,1.5,5.2,2.8
		c1.1,1.3,1.7,2.9,1.7,4.9c0,1.5-0.3,2.9-0.9,4.2c-0.6,1.3-1.4,2.4-2.6,3.4c-1.1,1-2.5,1.7-4.2,2.3c-1.7,0.5-3.6,0.8-5.7,0.8H90.4z
		 M98.7,16.4h4.3c0.9,0,1.7-0.1,2.5-0.2c0.7-0.1,1.4-0.4,1.9-0.7c0.5-0.3,0.9-0.8,1.2-1.3c0.3-0.6,0.4-1.3,0.4-2.2
		c0-0.8-0.1-1.6-0.3-2.1c-0.2-0.6-0.5-1-1-1.4c-0.4-0.3-1-0.6-1.7-0.7c-0.7-0.1-1.5-0.2-2.4-0.2h-4.9V16.4z M98.7,22v8.9h5.8
		c1.1,0,2-0.1,2.7-0.4c0.7-0.3,1.2-0.6,1.6-1.1c0.4-0.4,0.7-0.9,0.8-1.5c0.1-0.6,0.2-1.1,0.2-1.7c0-0.7-0.1-1.2-0.3-1.8
		c-0.2-0.5-0.5-1-0.9-1.3c-0.4-0.4-1-0.6-1.7-0.8c-0.7-0.2-1.6-0.3-2.6-0.3H98.7z"/>
	<path class="st1" d="M165.7,19.3c0,2.6-0.4,5-1.3,7.2s-2.1,4.2-3.8,5.8c-1.6,1.6-3.6,2.9-5.8,3.9c-2.3,0.9-4.8,1.4-7.6,1.4
		c-2.8,0-5.3-0.5-7.6-1.4c-2.3-0.9-4.2-2.2-5.9-3.9c-1.6-1.6-2.9-3.6-3.8-5.8c-0.9-2.2-1.3-4.6-1.3-7.2c0-2.6,0.4-5,1.3-7.2
		c0.9-2.2,2.1-4.2,3.8-5.8c1.6-1.6,3.6-2.9,5.9-3.9c2.3-0.9,4.8-1.4,7.6-1.4c2.8,0,5.3,0.5,7.6,1.4c2.3,0.9,4.2,2.2,5.8,3.9
		c1.6,1.6,2.9,3.6,3.8,5.8S165.7,16.7,165.7,19.3z M157.2,19.3c0-1.8-0.2-3.4-0.7-4.8c-0.5-1.4-1.1-2.6-2-3.6
		c-0.9-1-1.9-1.7-3.2-2.3c-1.2-0.5-2.7-0.8-4.2-0.8c-1.6,0-3,0.3-4.3,0.8c-1.2,0.5-2.3,1.3-3.2,2.3c-0.9,1-1.5,2.2-2,3.6
		c-0.5,1.4-0.7,3-0.7,4.8c0,1.8,0.2,3.4,0.7,4.8c0.5,1.4,1.1,2.6,2,3.6c0.9,1,1.9,1.7,3.2,2.2c1.2,0.5,2.7,0.8,4.3,0.8
		c1.6,0,3-0.3,4.2-0.8c1.2-0.5,2.3-1.3,3.2-2.2c0.9-1,1.5-2.2,2-3.6C157,22.6,157.2,21,157.2,19.3z"/>
	<path class="st1" d="M209.3,37.1h-6.4c-0.7,0-1.3-0.2-1.8-0.5c-0.5-0.3-0.8-0.8-1-1.3l-2.1-6.2h-13.6l-2.1,6.2
		c-0.2,0.5-0.5,0.9-1,1.2c-0.5,0.4-1.1,0.6-1.7,0.6h-6.5L187,1.4h8.5L209.3,37.1z M186.4,23.5h9.8l-3.3-9.8
		c-0.2-0.6-0.5-1.4-0.8-2.2c-0.3-0.8-0.6-1.8-0.8-2.7c-0.3,1-0.5,1.9-0.8,2.8c-0.3,0.9-0.5,1.6-0.8,2.2L186.4,23.5z"/>
	<path class="st1" d="M228.3,23.9v13.2h-8.3V1.4h11.6c2.6,0,4.8,0.3,6.6,0.8s3.3,1.3,4.5,2.2c1.2,0.9,2,2.1,2.5,3.4s0.8,2.7,0.8,4.2
		c0,1.2-0.2,2.3-0.5,3.3c-0.3,1-0.8,2-1.4,2.9c-0.6,0.9-1.4,1.7-2.3,2.3c-0.9,0.7-1.9,1.3-3.1,1.7c0.6,0.3,1.1,0.6,1.6,1
		c0.5,0.4,0.9,0.9,1.3,1.5l7.6,12.4h-7.5c-1.4,0-2.4-0.5-3-1.6l-5.9-10.4c-0.3-0.5-0.6-0.8-0.9-1c-0.4-0.2-0.8-0.3-1.5-0.3H228.3z
		 M228.3,18.2h3.3c1.1,0,2.1-0.1,2.9-0.4c0.8-0.3,1.4-0.7,2-1.2s0.9-1.1,1.1-1.8c0.2-0.7,0.3-1.4,0.3-2.2c0-1.6-0.5-2.8-1.5-3.7
		c-1-0.9-2.6-1.3-4.7-1.3h-3.3V18.2z"/>
	<path class="st1" d="M293,19.3c0,2.6-0.4,5-1.3,7.2c-0.9,2.2-2.1,4.1-3.8,5.7c-1.6,1.6-3.6,2.8-5.8,3.7c-2.3,0.9-4.8,1.3-7.6,1.3
		h-13.9V1.4h13.9c2.8,0,5.3,0.5,7.6,1.3c2.3,0.9,4.2,2.1,5.8,3.7c1.6,1.6,2.9,3.5,3.8,5.7C292.5,14.3,293,16.7,293,19.3z
		 M284.5,19.3c0-1.8-0.2-3.4-0.7-4.8s-1.1-2.6-2-3.6c-0.9-1-1.9-1.7-3.2-2.3s-2.7-0.8-4.2-0.8h-5.5v23h5.5c1.6,0,3-0.3,4.2-0.8
		s2.3-1.3,3.2-2.3c0.9-1,1.5-2.2,2-3.6C284.2,22.6,284.5,21,284.5,19.3z"/>
</g>
<g class="st2">
	<g>
		<g>
			<path class="st3" d="M332.7,24.9v4.3h-3v-13h4.6c0.9,0,1.7,0.1,2.4,0.3c0.7,0.2,1.2,0.5,1.6,0.9c0.4,0.4,0.7,0.8,0.9,1.3
				c0.2,0.5,0.3,1.1,0.3,1.7c0,0.6-0.1,1.2-0.3,1.8c-0.2,0.5-0.5,1-1,1.4c-0.4,0.4-1,0.7-1.6,0.9c-0.7,0.2-1.4,0.3-2.3,0.3H332.7z
				 M332.7,22.6h1.6c0.8,0,1.3-0.2,1.7-0.6c0.3-0.4,0.5-0.9,0.5-1.6c0-0.3,0-0.6-0.1-0.8c-0.1-0.2-0.2-0.5-0.4-0.6
				c-0.2-0.2-0.4-0.3-0.7-0.4c-0.3-0.1-0.6-0.1-1-0.1h-1.6V22.6z"/>
			<path class="st3" d="M349.2,24.4v4.8h-3v-13h4.2c0.9,0,1.7,0.1,2.4,0.3c0.7,0.2,1.2,0.5,1.6,0.8c0.4,0.3,0.7,0.8,0.9,1.2
				c0.2,0.5,0.3,1,0.3,1.5c0,0.4-0.1,0.8-0.2,1.2c-0.1,0.4-0.3,0.7-0.5,1c-0.2,0.3-0.5,0.6-0.8,0.8c-0.3,0.2-0.7,0.5-1.1,0.6
				c0.2,0.1,0.4,0.2,0.6,0.4c0.2,0.1,0.3,0.3,0.5,0.5l2.8,4.5H354c-0.5,0-0.9-0.2-1.1-0.6l-2.2-3.8c-0.1-0.2-0.2-0.3-0.3-0.4
				c-0.1-0.1-0.3-0.1-0.5-0.1H349.2z M349.2,22.3h1.2c0.4,0,0.8-0.1,1-0.2s0.5-0.2,0.7-0.4c0.2-0.2,0.3-0.4,0.4-0.6
				c0.1-0.2,0.1-0.5,0.1-0.8c0-0.6-0.2-1-0.6-1.3c-0.4-0.3-0.9-0.5-1.7-0.5h-1.2V22.3z"/>
			<path class="st3" d="M375.5,22.7c0,0.9-0.2,1.8-0.5,2.6s-0.8,1.5-1.4,2.1c-0.6,0.6-1.3,1.1-2.1,1.4c-0.8,0.3-1.7,0.5-2.8,0.5
				c-1,0-1.9-0.2-2.8-0.5c-0.8-0.3-1.5-0.8-2.1-1.4c-0.6-0.6-1-1.3-1.4-2.1c-0.3-0.8-0.5-1.7-0.5-2.6c0-0.9,0.2-1.8,0.5-2.6
				c0.3-0.8,0.8-1.5,1.4-2.1c0.6-0.6,1.3-1.1,2.1-1.4s1.7-0.5,2.8-0.5c1,0,1.9,0.2,2.8,0.5c0.8,0.3,1.5,0.8,2.1,1.4
				c0.6,0.6,1,1.3,1.4,2.1C375.3,20.9,375.5,21.8,375.5,22.7z M372.4,22.7c0-0.6-0.1-1.2-0.2-1.7c-0.2-0.5-0.4-0.9-0.7-1.3
				c-0.3-0.4-0.7-0.6-1.1-0.8c-0.5-0.2-1-0.3-1.5-0.3c-0.6,0-1.1,0.1-1.6,0.3c-0.5,0.2-0.8,0.5-1.1,0.8c-0.3,0.4-0.5,0.8-0.7,1.3
				s-0.2,1.1-0.2,1.7c0,0.6,0.1,1.2,0.2,1.7c0.2,0.5,0.4,0.9,0.7,1.3c0.3,0.4,0.7,0.6,1.1,0.8c0.5,0.2,1,0.3,1.6,0.3
				c0.6,0,1.1-0.1,1.5-0.3c0.5-0.2,0.8-0.5,1.1-0.8c0.3-0.4,0.6-0.8,0.7-1.3C372.3,23.9,372.4,23.4,372.4,22.7z"/>
		</g>
	</g>
	<rect x="319.2" y="8.9" class="st4" width="65.5" height="28.2"/>
</g>
</svg>
