<svg id="Layer_1" data-name="Layer 1" xmlns="http://www.w3.org/2000/svg" viewBox="0 0 389.72 39.51"><defs><style>.cls-1{fill:#ee366b;}.cls-2{fill:#231f20;opacity:0.2;}.cls-3{opacity:0.48;}.cls-4{fill:#42bfb7;}.cls-5{fill:none;stroke:#25baa6;stroke-miterlimit:10;stroke-width:0.5px;}</style></defs><title>Artboard 1 copy</title><path class="cls-1" d="M28.05,27.89a1.58,1.58,0,0,1,.59.11,1.59,1.59,0,0,1,.56.38l3.29,3.46a13.57,13.57,0,0,1-5.41,4.25,18.88,18.88,0,0,1-7.69,1.44,18.38,18.38,0,0,1-7.3-1.39,15.75,15.75,0,0,1-5.47-3.83,16.65,16.65,0,0,1-3.45-5.79A21.37,21.37,0,0,1,2,19.25,19.35,19.35,0,0,1,3.34,11.9,17.26,17.26,0,0,1,7.18,6.13a17.37,17.37,0,0,1,5.9-3.78A20.57,20.57,0,0,1,20.66,1a19.05,19.05,0,0,1,3.79.36,17.69,17.69,0,0,1,3.33,1,15.29,15.29,0,0,1,2.84,1.49,13.75,13.75,0,0,1,2.31,1.93l-2.8,3.75a3.48,3.48,0,0,1-.64.63,1.62,1.62,0,0,1-1,.28,1.72,1.72,0,0,1-.83-.2,8.29,8.29,0,0,1-.83-.48l-1-.61a7.54,7.54,0,0,0-1.24-.61A10.26,10.26,0,0,0,22.88,8a11.53,11.53,0,0,0-2.27-.2,10.44,10.44,0,0,0-4.12.8,9,9,0,0,0-3.2,2.28,10.61,10.61,0,0,0-2.08,3.6,14,14,0,0,0-.75,4.73,14.67,14.67,0,0,0,.75,4.88,10.91,10.91,0,0,0,2,3.6,8.7,8.7,0,0,0,3,2.22,9.08,9.08,0,0,0,3.68.76A18.57,18.57,0,0,0,22,30.6a9,9,0,0,0,1.73-.38,8.7,8.7,0,0,0,1.52-.7,10.21,10.21,0,0,0,1.46-1.07,2.79,2.79,0,0,1,.63-.4A1.68,1.68,0,0,1,28.05,27.89Z"/><path class="cls-1" d="M59.32,24.18a18.61,18.61,0,0,1-.74,5.45,11.4,11.4,0,0,1-2.26,4.2,10.15,10.15,0,0,1-3.79,2.73,13.77,13.77,0,0,1-5.37,1,25.11,25.11,0,0,1-2.76-.15,24.18,24.18,0,0,1-2.84-.49L42,32.06a1.44,1.44,0,0,1,.5-1,1.82,1.82,0,0,1,1.26-.4,4.9,4.9,0,0,1,1,.14,7,7,0,0,0,1.48.13,6.07,6.07,0,0,0,2.09-.33,3.31,3.31,0,0,0,1.49-1.1,5.44,5.44,0,0,0,.88-2,13.45,13.45,0,0,0,.3-3.09v-23h8.28Z"/><path class="cls-2" d="M90.38,37.13V1.39h13.15a24.83,24.83,0,0,1,6.3.69A12,12,0,0,1,114.08,4a7.31,7.31,0,0,1,2.39,3,10.26,10.26,0,0,1,.75,4,8.19,8.19,0,0,1-.34,2.32,6.64,6.64,0,0,1-1.09,2.09,7.83,7.83,0,0,1-1.88,1.78,12.65,12.65,0,0,1-2.78,1.39,9.85,9.85,0,0,1,5.23,2.78,7.22,7.22,0,0,1,1.69,4.95,10.19,10.19,0,0,1-.88,4.24A9.65,9.65,0,0,1,114.58,34a12.22,12.22,0,0,1-4.21,2.28,18.17,18.17,0,0,1-5.71.82Zm8.29-20.7H103a14.4,14.4,0,0,0,2.48-.2,5.17,5.17,0,0,0,1.88-.68,3.21,3.21,0,0,0,1.17-1.35,5,5,0,0,0,.41-2.16,6.11,6.11,0,0,0-.32-2.12,3.06,3.06,0,0,0-1-1.37,4.23,4.23,0,0,0-1.69-.73,11.25,11.25,0,0,0-2.41-.22H98.67Zm0,5.54v8.91h5.84a7.34,7.34,0,0,0,2.69-.42,4.3,4.3,0,0,0,1.63-1.08,3.69,3.69,0,0,0,.81-1.49,6.5,6.5,0,0,0,.22-1.7,5.66,5.66,0,0,0-.26-1.76,2.94,2.94,0,0,0-.88-1.33,4.38,4.38,0,0,0-1.66-.83,9.42,9.42,0,0,0-2.6-.3Z"/><path class="cls-2" d="M165.69,19.25a19.18,19.18,0,0,1-1.33,7.21,17.56,17.56,0,0,1-3.77,5.81,17.3,17.3,0,0,1-5.85,3.86,21.33,21.33,0,0,1-15.2,0,17,17,0,0,1-9.65-9.67,19.19,19.19,0,0,1-1.34-7.21A19.22,19.22,0,0,1,129.89,12a17.09,17.09,0,0,1,3.78-5.79,17.36,17.36,0,0,1,5.87-3.85A20.06,20.06,0,0,1,147.15,1a19.73,19.73,0,0,1,7.59,1.41,17.6,17.6,0,0,1,5.85,3.86,17.47,17.47,0,0,1,3.77,5.79A19.19,19.19,0,0,1,165.69,19.25Zm-8.49,0a15.4,15.4,0,0,0-.68-4.77,10.14,10.14,0,0,0-2-3.59,8.34,8.34,0,0,0-3.15-2.26,10.9,10.9,0,0,0-4.24-.79,11,11,0,0,0-4.28.79,8.41,8.41,0,0,0-3.17,2.26,10.12,10.12,0,0,0-2,3.59,15.39,15.39,0,0,0-.69,4.77,15.54,15.54,0,0,0,.69,4.8,10.12,10.12,0,0,0,2,3.59,8.5,8.5,0,0,0,3.17,2.25,11.23,11.23,0,0,0,4.28.77,11.09,11.09,0,0,0,4.24-.77,8.42,8.42,0,0,0,3.15-2.25,10.14,10.14,0,0,0,2-3.59A15.55,15.55,0,0,0,157.2,19.25Z"/><path class="cls-2" d="M209.31,37.13h-6.42a3,3,0,0,1-1.79-.5,2.59,2.59,0,0,1-1-1.29L198,29.11h-13.6l-2.1,6.23a2.85,2.85,0,0,1-1,1.24,2.76,2.76,0,0,1-1.74.55h-6.48L187,1.39h8.48Zm-23-13.66h9.76l-3.28-9.79q-.33-.93-.75-2.19c-.29-.85-.57-1.76-.85-2.74-.26,1-.53,1.92-.81,2.77s-.54,1.59-.78,2.21Z"/><path class="cls-2" d="M228.35,23.91V37.13h-8.3V1.39h11.63a23.9,23.9,0,0,1,6.61.8,12.31,12.31,0,0,1,4.47,2.22,8.41,8.41,0,0,1,2.51,3.36,11,11,0,0,1,.79,4.22,11.38,11.38,0,0,1-.47,3.29,10.09,10.09,0,0,1-1.38,2.86A11.11,11.11,0,0,1,242,20.48a11.84,11.84,0,0,1-3.08,1.69,7.66,7.66,0,0,1,1.56,1,6.2,6.2,0,0,1,1.26,1.5l7.61,12.43h-7.51a3.18,3.18,0,0,1-3-1.56l-5.94-10.38a2.44,2.44,0,0,0-.92-1,3,3,0,0,0-1.48-.3Zm0-5.71h3.33a8.65,8.65,0,0,0,2.88-.43,5.23,5.23,0,0,0,2-1.19,4.63,4.63,0,0,0,1.1-1.78,6.81,6.81,0,0,0,.34-2.2,4.62,4.62,0,0,0-1.53-3.68,7.15,7.15,0,0,0-4.75-1.32h-3.33Z"/><path class="cls-2" d="M293,19.25a18.73,18.73,0,0,1-1.33,7.15,16.71,16.71,0,0,1-3.77,5.67A17.15,17.15,0,0,1,282,35.8a20.71,20.71,0,0,1-7.59,1.33H260.53V1.39h13.89A20.51,20.51,0,0,1,282,2.74a17.45,17.45,0,0,1,5.85,3.73,16.63,16.63,0,0,1,3.77,5.65A18.73,18.73,0,0,1,293,19.25Zm-8.49,0a15.46,15.46,0,0,0-.68-4.78,10.19,10.19,0,0,0-2-3.62,8.58,8.58,0,0,0-3.15-2.28,10.72,10.72,0,0,0-4.24-.8h-5.55v23h5.55a10.72,10.72,0,0,0,4.24-.8,8.58,8.58,0,0,0,3.15-2.28,10.28,10.28,0,0,0,2-3.62A15.61,15.61,0,0,0,284.47,19.25Z"/><g class="cls-3"><path class="cls-4" d="M332.66,24.87V29.2h-3V16.25h4.57a7.67,7.67,0,0,1,2.35.32,4.5,4.5,0,0,1,1.62.9,3.48,3.48,0,0,1,.94,1.34,4.55,4.55,0,0,1,.3,1.67,4.86,4.86,0,0,1-.31,1.78,3.6,3.6,0,0,1-.95,1.39,4.64,4.64,0,0,1-1.63.9,7.26,7.26,0,0,1-2.32.32Zm0-2.26h1.56a2.22,2.22,0,0,0,1.69-.56,2.22,2.22,0,0,0,.51-1.57,2.37,2.37,0,0,0-.13-.81,1.51,1.51,0,0,0-.4-.62,1.81,1.81,0,0,0-.69-.41,3.12,3.12,0,0,0-1-.14h-1.56Z"/><path class="cls-4" d="M349.16,24.41V29.2h-3V16.25h4.22a8.73,8.73,0,0,1,2.39.29,4.47,4.47,0,0,1,1.62.8,3.06,3.06,0,0,1,.91,1.22,4,4,0,0,1,.28,1.53,4.17,4.17,0,0,1-.16,1.19,3.73,3.73,0,0,1-.51,1,4.06,4.06,0,0,1-.81.85,4.46,4.46,0,0,1-1.12.61,2.92,2.92,0,0,1,.57.37,2,2,0,0,1,.45.55l2.76,4.5H354a1.14,1.14,0,0,1-1.08-.57l-2.16-3.76a.86.86,0,0,0-.33-.35,1.15,1.15,0,0,0-.54-.11Zm0-2.07h1.21a2.92,2.92,0,0,0,1-.16,1.81,1.81,0,0,0,.71-.43,1.65,1.65,0,0,0,.4-.64,2.58,2.58,0,0,0,.12-.8,1.63,1.63,0,0,0-.56-1.33,2.55,2.55,0,0,0-1.71-.48h-1.21Z"/><path class="cls-4" d="M375.47,22.72a7.05,7.05,0,0,1-.48,2.62,6.16,6.16,0,0,1-3.48,3.5,7.84,7.84,0,0,1-5.51,0,6.19,6.19,0,0,1-3.5-3.5,7.06,7.06,0,0,1-.49-2.62,7,7,0,0,1,.49-2.61,6.12,6.12,0,0,1,1.37-2.1,6.32,6.32,0,0,1,2.13-1.4,7.36,7.36,0,0,1,2.75-.5,7.22,7.22,0,0,1,2.76.51,6.48,6.48,0,0,1,2.12,1.4,6.24,6.24,0,0,1,1.36,2.1A7,7,0,0,1,375.47,22.72Zm-3.07,0a5.52,5.52,0,0,0-.25-1.73,3.65,3.65,0,0,0-.72-1.3,3,3,0,0,0-1.14-.82,3.92,3.92,0,0,0-1.54-.28,4,4,0,0,0-1.55.28,3,3,0,0,0-1.14.82,3.65,3.65,0,0,0-.72,1.3,6.15,6.15,0,0,0,0,3.47,3.56,3.56,0,0,0,.72,1.3,3,3,0,0,0,1.14.82,4.24,4.24,0,0,0,1.55.28,4.11,4.11,0,0,0,1.54-.28,3,3,0,0,0,1.14-.82,3.56,3.56,0,0,0,.72-1.3A5.5,5.5,0,0,0,372.4,22.72Z"/><rect class="cls-5" x="319.23" y="8.95" width="65.49" height="28.19"/></g></svg>